<?xml version="1.0" standalone="no"?>
<!DOCTYPE svg PUBLIC "-//W3C//DTD SVG 20010904//EN"
 "http://www.w3.org/TR/2001/REC-SVG-20010904/DTD/svg10.dtd">
<svg version="1.0" xmlns="http://www.w3.org/2000/svg"
 width="512.000000pt" height="512.000000pt" viewBox="0 0 512.000000 512.000000"
 preserveAspectRatio="xMidYMid meet">
<metadata>
Created by potrace 1.14, written by Peter Selinger 2001-2017
</metadata>
<g transform="translate(0.000000,512.000000) scale(0.100000,-0.100000)"
fill="#000000" stroke="none">
<path d="M2326 5029 c-586 -62 -1105 -308 -1516 -719 -383 -383 -624 -862
-706 -1405 -22 -148 -25 -511 -5 -655 79 -575 325 -1068 727 -1461 248 -241
479 -395 787 -523 211 -88 408 -140 647 -172 176 -23 545 -15 715 15 659 117
1224 473 1609 1012 250 351 402 754 446 1182 16 152 8 495 -15 637 -39 249
-111 471 -230 715 -254 523 -706 952 -1247 1184 -372 160 -825 231 -1212 190z
m-535 -1504 l768 -325 758 307 c417 168 770 308 784 310 32 6 48 -22 21 -36
-21 -11 -1531 -622 -1553 -628 -16 -4 -1553 638 -1573 657 -8 8 9 40 22 40 2
0 350 -146 773 -325z m11 -233 l757 -319 778 313 c623 252 780 312 790 302 7
-7 9 -18 5 -24 -5 -9 -1294 -536 -1552 -636 -21 -8 -133 36 -785 312 -418 177
-770 328 -782 336 -28 18 -20 48 11 40 11 -3 362 -149 778 -324z m-17 -233
c475 -186 775 -299 788 -296 12 2 361 138 775 301 414 163 762 296 773 296 11
0 31 -11 44 -25 l25 -24 0 -906 c0 -573 -4 -913 -10 -925 -5 -10 -42 -32 -82
-48 -142 -59 -1484 -585 -1515 -593 -28 -8 -117 24 -806 295 -427 168 -789
312 -805 320 -16 8 -32 23 -36 31 -3 9 -6 424 -6 921 l0 905 25 24 c13 14 33
25 44 25 11 0 365 -135 786 -301z"/>
<path d="M3854 2521 c-56 -34 -80 -121 -50 -179 52 -100 191 -110 251 -19 41
63 19 163 -44 200 -39 23 -117 22 -157 -2z m124 -83 c2 -14 -4 -31 -12 -38 -9
-7 -16 -28 -16 -46 0 -24 -5 -34 -15 -34 -10 0 -15 10 -15 34 0 18 -7 39 -15
46 -8 7 -15 26 -15 42 0 57 81 54 88 -4z"/>
</g>
</svg>
