<?xml version="1.0" standalone="no"?>
<!DOCTYPE svg PUBLIC "-//W3C//DTD SVG 20010904//EN"
 "http://www.w3.org/TR/2001/REC-SVG-20010904/DTD/svg10.dtd">
<svg version="1.0" xmlns="http://www.w3.org/2000/svg"
 width="512.000000pt" height="512.000000pt" viewBox="0 0 512.000000 512.000000"
 preserveAspectRatio="xMidYMid meet">
<metadata>
Created by potrace 1.14, written by Peter Selinger 2001-2017
</metadata>
<g transform="translate(0.000000,512.000000) scale(0.100000,-0.100000)"
fill="#000000" stroke="none">
<path d="M2460 4964 c-306 -19 -542 -69 -792 -170 -806 -323 -1372 -1050
-1494 -1919 -23 -162 -23 -468 0 -630 103 -736 518 -1367 1146 -1745 384 -232
788 -343 1245 -342 611 1 1141 206 1614 625 410 363 687 892 767 1462 23 163
23 469 0 630 -113 793 -593 1472 -1291 1825 -340 172 -637 248 -1030 263 -60
2 -135 2 -165 1z m341 -1510 c142 -27 315 -110 386 -186 l22 -23 -105 -122
c-58 -68 -108 -123 -113 -123 -5 0 -19 9 -33 19 -86 68 -248 117 -351 107
-101 -10 -147 -48 -147 -121 0 -78 26 -96 255 -175 266 -92 380 -160 454 -271
53 -80 72 -143 78 -264 9 -168 -32 -280 -142 -390 -75 -75 -174 -128 -303
-162 -83 -21 -119 -25 -247 -25 -233 -1 -388 42 -558 155 -134 89 -134 71 5
224 l120 132 46 -35 c108 -84 227 -124 361 -124 139 0 211 52 211 151 0 95
-47 131 -275 209 -190 66 -292 118 -372 193 -78 73 -119 153 -135 266 -41 281
143 507 463 570 76 15 290 12 380 -5z m-1625 -34 c165 -14 290 -41 380 -84
146 -69 205 -156 212 -311 2 -49 -1 -108 -7 -130 -26 -98 -109 -182 -223 -227
l-57 -23 72 -25 c137 -48 214 -107 257 -196 19 -39 25 -70 28 -150 11 -261
-99 -400 -372 -469 -139 -35 -279 -45 -643 -45 l-333 0 0 828 c0 456 3 832 7
835 10 11 537 8 679 -3z m3131 -7 c4 -10 114 -385 244 -833 l236 -815 -255 -3
c-164 -1 -258 1 -262 8 -3 5 -19 77 -35 160 l-29 150 -201 0 -200 0 -30 -157
-30 -158 -257 -3 c-204 -2 -257 0 -253 10 2 7 111 378 240 823 130 446 238
816 240 823 3 9 71 12 295 12 268 0 291 -1 297 -17z"/>
<path d="M990 2935 l0 -158 88 5 c147 9 194 47 195 158 1 106 -44 141 -190
148 l-93 4 0 -157z"/>
<path d="M990 2289 l0 -181 113 4 c166 6 218 39 233 150 9 63 -10 121 -51 157
-45 39 -90 51 -202 51 l-93 0 0 -181z"/>
<path d="M3997 3050 c-11 -45 -117 -597 -117 -609 0 -8 38 -11 125 -11 96 0
125 3 125 13 0 13 -117 602 -123 622 -2 5 -6 -1 -10 -15z"/>
</g>
</svg>
