<svg  viewBox="0 0 24 20" fill="none" xmlns="http://www.w3.org/2000/svg">
<path d="M1.70667 20H14.2951C14.71 20 15.0464 19.658 15.0464 19.2361V16.3904C15.0464 15.9685 14.71 15.6264 14.2951 15.6264L1.70667 15.6264C1.29173 15.6264 0.955349 15.9685 0.955349 16.3904V19.2361C0.955349 19.658 1.29173 20 1.70667 20Z" fill="#757575"/>
<path d="M6.08704 12.1885L18.6754 12.1885C19.0904 12.1885 19.4268 11.8464 19.4268 11.4245V8.57885C19.4268 8.15694 19.0904 7.81491 18.6754 7.81491L6.08704 7.81491C5.6721 7.81491 5.33572 8.15694 5.33572 8.57885V11.4245C5.33572 11.8464 5.6721 12.1885 6.08704 12.1885Z" fill="#757575"/>
<path d="M10.4596 4.37402L23.048 4.37402C23.4629 4.37402 23.7993 4.032 23.7993 3.61008V0.764398C23.7993 0.342484 23.4629 0.000456333 23.048 0.000456333L10.4596 0.000456333C10.0447 0.000456333 9.70828 0.342484 9.70828 0.764398V3.61008C9.70828 4.032 10.0447 4.37402 10.4596 4.37402Z" fill="#757575"/>
</svg>
